<svg width="170" height="48" viewBox="0 0 170 48" fill="none" xmlns="http://www.w3.org/2000/svg">
<rect width="170" height="48" rx="10" fill="url(#paint0_linear_2190_88)"/>
<path d="M33.208 30.16C31.3733 30.16 29.9973 29.7653 29.08 28.976C28.1733 28.176 27.72 26.9173 27.72 25.2C27.72 24.208 27.9067 23.344 28.28 22.608C28.6533 21.8613 29.2453 21.28 30.056 20.864C30.8667 20.448 31.9173 20.24 33.208 20.24C34.2213 20.24 35.064 20.2933 35.736 20.4C36.408 20.5067 36.8613 20.6133 37.096 20.72V21.04L37.416 22.48C37.2133 22.3413 36.9093 22.1973 36.504 22.048C36.1093 21.8987 35.6347 21.776 35.08 21.68C34.5253 21.5733 33.912 21.52 33.24 21.52C32.2907 21.52 31.544 21.68 31 22C30.456 22.3093 30.072 22.7413 29.848 23.296C29.624 23.8507 29.512 24.4853 29.512 25.2C29.512 25.9147 29.624 26.5493 29.848 27.104C30.0827 27.648 30.4987 28.08 31.096 28.4C31.704 28.7093 32.5733 28.864 33.704 28.864C34.6213 28.864 35.384 28.7573 35.992 28.544C36.6107 28.32 37.032 28.1067 37.256 27.904V28.384L37.416 29.36C37.2347 29.5307 36.792 29.7067 36.088 29.888C35.3947 30.0693 34.4347 30.16 33.208 30.16ZM42.7505 30.16C41.6838 30.16 40.8465 29.9893 40.2385 29.648C39.6412 29.3067 39.2198 28.8427 38.9745 28.256C38.7398 27.6693 38.6225 27.008 38.6225 26.272C38.6225 25.5253 38.7452 24.8587 38.9905 24.272C39.2465 23.6853 39.6732 23.2213 40.2705 22.88C40.8678 22.528 41.6945 22.352 42.7505 22.352C43.8065 22.352 44.6332 22.528 45.2305 22.88C45.8278 23.2213 46.2492 23.6853 46.4945 24.272C46.7505 24.8587 46.8785 25.5253 46.8785 26.272C46.8785 27.008 46.7558 27.6693 46.5105 28.256C46.2758 28.8427 45.8598 29.3067 45.2625 29.648C44.6652 29.9893 43.8278 30.16 42.7505 30.16ZM42.7505 29.024C43.4118 29.024 43.9238 28.9173 44.2865 28.704C44.6492 28.4907 44.8998 28.1813 45.0385 27.776C45.1772 27.36 45.2465 26.8587 45.2465 26.272C45.2465 25.6853 45.1718 25.184 45.0225 24.768C44.8838 24.352 44.6332 24.032 44.2705 23.808C43.9185 23.584 43.4118 23.472 42.7505 23.472C42.0998 23.472 41.5932 23.5893 41.2305 23.824C40.8678 24.048 40.6118 24.3733 40.4625 24.8C40.3238 25.216 40.2545 25.712 40.2545 26.288C40.2545 26.8533 40.3238 27.344 40.4625 27.76C40.6012 28.1653 40.8518 28.48 41.2145 28.704C41.5772 28.9173 42.0892 29.024 42.7505 29.024ZM48.1735 30C48.2482 30 48.3175 29.9253 48.3815 29.776C48.4562 29.6267 48.4935 29.3813 48.4935 29.04V23.632C48.4935 23.2907 48.4562 23.0507 48.3815 22.912C48.3175 22.7627 48.2482 22.6827 48.1735 22.672C48.6428 22.672 49.0482 22.64 49.3895 22.576C49.7415 22.5013 49.9868 22.4267 50.1255 22.352V23.328L50.0935 23.536L50.1255 23.568C50.2855 23.3653 50.4882 23.1733 50.7335 22.992C50.9895 22.8107 51.3042 22.6613 51.6775 22.544C52.0508 22.416 52.4882 22.352 52.9895 22.352C53.9815 22.352 54.7388 22.6347 55.2615 23.2C55.7948 23.7653 56.0615 24.6507 56.0615 25.856V29.04C56.0615 29.3813 56.0935 29.6267 56.1575 29.776C56.2322 29.9253 56.3068 30 56.3815 30H54.1095C54.1842 30 54.2535 29.9253 54.3175 29.776C54.3922 29.6267 54.4295 29.3813 54.4295 29.04V25.904C54.4295 25.2747 54.3495 24.784 54.1895 24.432C54.0295 24.08 53.8055 23.8347 53.5175 23.696C53.2402 23.5467 52.9148 23.472 52.5415 23.472C52.1468 23.472 51.7628 23.5573 51.3895 23.728C51.0162 23.8987 50.7122 24.1707 50.4775 24.544C50.2428 24.9173 50.1255 25.4187 50.1255 26.048V29.04C50.1255 29.3813 50.1575 29.6267 50.2215 29.776C50.2962 29.9253 50.3708 30 50.4455 30H48.1735ZM57.7516 30C57.8263 30 57.8956 29.9253 57.9596 29.776C58.0343 29.6267 58.0716 29.3813 58.0716 29.04V23.632C58.0716 23.2907 58.0343 23.0507 57.9596 22.912C57.8956 22.7627 57.8263 22.6827 57.7516 22.672C58.221 22.672 58.6263 22.64 58.9676 22.576C59.3196 22.5013 59.565 22.4267 59.7036 22.352V23.328L59.6716 23.536L59.7036 23.568C59.8636 23.3653 60.0663 23.1733 60.3116 22.992C60.5676 22.8107 60.8823 22.6613 61.2556 22.544C61.629 22.416 62.0663 22.352 62.5676 22.352C63.5596 22.352 64.317 22.6347 64.8396 23.2C65.373 23.7653 65.6396 24.6507 65.6396 25.856V29.04C65.6396 29.3813 65.6716 29.6267 65.7356 29.776C65.8103 29.9253 65.885 30 65.9596 30H63.6876C63.7623 30 63.8316 29.9253 63.8956 29.776C63.9703 29.6267 64.0076 29.3813 64.0076 29.04V25.904C64.0076 25.2747 63.9276 24.784 63.7676 24.432C63.6076 24.08 63.3836 23.8347 63.0956 23.696C62.8183 23.5467 62.493 23.472 62.1196 23.472C61.725 23.472 61.341 23.5573 60.9676 23.728C60.5943 23.8987 60.2903 24.1707 60.0556 24.544C59.821 24.9173 59.7036 25.4187 59.7036 26.048V29.04C59.7036 29.3813 59.7356 29.6267 59.7996 29.776C59.8743 29.9253 59.949 30 60.0236 30H57.7516ZM71.3458 30.16C70.5031 30.16 69.8098 30.064 69.2658 29.872C68.7218 29.6693 68.2951 29.392 67.9858 29.04C67.6764 28.688 67.4578 28.2773 67.3298 27.808C67.2124 27.3387 67.1538 26.8267 67.1538 26.272C67.1538 25.0667 67.4951 24.112 68.1778 23.408C68.8711 22.704 69.8951 22.352 71.2498 22.352C72.0391 22.352 72.6738 22.4587 73.1538 22.672C73.6444 22.8853 74.0124 23.168 74.2578 23.52C74.5138 23.872 74.6844 24.256 74.7698 24.672C74.8658 25.0773 74.9138 25.4773 74.9138 25.872V26.624C74.9138 26.592 74.7644 26.56 74.4658 26.528C74.1778 26.4853 73.6871 26.464 72.9938 26.464H68.7858C68.7858 27.2533 69.0204 27.8773 69.4898 28.336C69.9591 28.7947 70.6578 29.024 71.5858 29.024C72.3858 29.024 73.0418 28.928 73.5538 28.736C74.0764 28.5333 74.4231 28.336 74.5938 28.144V28.464L74.7538 29.52C74.5191 29.6587 74.1031 29.8027 73.5058 29.952C72.9191 30.0907 72.1991 30.16 71.3458 30.16ZM69.4258 25.408H73.3138C73.3138 25.1307 73.2551 24.8427 73.1378 24.544C73.0204 24.2453 72.8124 23.9947 72.5138 23.792C72.2151 23.5787 71.7938 23.472 71.2498 23.472C70.7911 23.472 70.3911 23.552 70.0498 23.712C69.7084 23.8613 69.4418 24.0587 69.2498 24.304C69.0684 24.5493 68.9778 24.8107 68.9778 25.088C68.9778 25.1947 69.0098 25.2747 69.0738 25.328C69.1378 25.3813 69.2551 25.408 69.4258 25.408ZM80.4429 30.16C79.3335 30.16 78.4589 29.9893 77.8189 29.648C77.1895 29.3067 76.7469 28.8427 76.4909 28.256C76.2349 27.6693 76.1069 27.008 76.1069 26.272C76.1069 24.9707 76.4589 23.9947 77.1629 23.344C77.8775 22.6933 78.9175 22.368 80.2829 22.368C81.1149 22.368 81.8135 22.4213 82.3789 22.528C82.9442 22.6347 83.3335 22.736 83.5469 22.832V23.152L83.8669 24.544C83.6535 24.32 83.2482 24.0907 82.6509 23.856C82.0535 23.6107 81.3015 23.488 80.3949 23.488C79.9362 23.488 79.4989 23.568 79.0829 23.728C78.6775 23.8773 78.3469 24.1547 78.0909 24.56C77.8455 24.9653 77.7229 25.5413 77.7229 26.288C77.7229 27.0133 77.8562 27.5787 78.1229 27.984C78.3895 28.3787 78.7575 28.6507 79.2269 28.8C79.6962 28.9493 80.2295 29.024 80.8269 29.024C81.5842 29.024 82.2082 28.9067 82.6989 28.672C83.2002 28.4373 83.5362 28.208 83.7069 27.984V28.304L83.8669 29.392C83.6642 29.5627 83.2642 29.7333 82.6669 29.904C82.0802 30.0747 81.3389 30.16 80.4429 30.16ZM88.356 30.16C87.62 30.16 87.0867 30.0053 86.756 29.696C86.4253 29.376 86.26 28.8587 86.26 28.144V23.632H84.82V22.512C85.3107 22.512 85.6947 22.4533 85.972 22.336C86.2493 22.208 86.4467 21.9893 86.564 21.68C86.6813 21.3707 86.74 20.9387 86.74 20.384H87.892V22.512H90.948C90.8733 22.6187 90.7987 22.7787 90.724 22.992C90.66 23.1947 90.628 23.408 90.628 23.632H87.892V27.904C87.892 28.3947 87.9827 28.704 88.164 28.832C88.3453 28.96 88.5747 29.024 88.852 29.024C89.1187 29.024 89.364 28.9707 89.588 28.864C89.8227 28.7467 90.0253 28.608 90.196 28.448C90.3773 28.288 90.516 28.1333 90.612 27.984V28.48L90.772 29.392C90.6653 29.4987 90.5 29.616 90.276 29.744C90.052 29.8613 89.78 29.9573 89.46 30.032C89.14 30.1173 88.772 30.16 88.356 30.16ZM98.2331 30C98.3078 30 98.3558 29.9307 98.3771 29.792C98.4091 29.6427 98.3611 29.392 98.2331 29.04C98.1798 28.9013 98.0785 28.656 97.9291 28.304C97.7798 27.952 97.6038 27.5467 97.4011 27.088C97.2091 26.6187 97.0065 26.1493 96.7931 25.68C96.5798 25.2 96.3825 24.768 96.2011 24.384C96.0198 23.9893 95.8758 23.696 95.7691 23.504C95.5878 23.1627 95.4225 22.9173 95.2731 22.768C95.1238 22.608 95.0171 22.5227 94.9531 22.512H97.5611C97.4651 22.512 97.4011 22.5867 97.3691 22.736C97.3371 22.8853 97.4011 23.1413 97.5611 23.504C97.6465 23.6853 97.7638 23.9627 97.9131 24.336C98.0625 24.6987 98.2278 25.12 98.4091 25.6C98.6011 26.0693 98.7931 26.5493 98.9851 27.04C99.1771 27.5307 99.3531 27.9893 99.5131 28.416H99.5291C99.6891 27.9787 99.8598 27.5147 100.041 27.024C100.222 26.5227 100.398 26.032 100.569 25.552C100.75 25.072 100.91 24.6507 101.049 24.288C101.188 23.9147 101.294 23.6427 101.369 23.472C101.518 23.1307 101.577 22.8853 101.545 22.736C101.513 22.5867 101.454 22.512 101.369 22.512H103.929C103.833 22.512 103.769 22.5867 103.737 22.736C103.705 22.8853 103.769 23.1413 103.929 23.504C104.014 23.6853 104.126 23.9627 104.265 24.336C104.414 24.6987 104.574 25.12 104.745 25.6C104.926 26.0693 105.108 26.5493 105.289 27.04C105.47 27.5307 105.636 27.9893 105.785 28.416H105.801C105.982 27.9787 106.174 27.5147 106.377 27.024C106.58 26.5227 106.782 26.032 106.985 25.552C107.188 25.072 107.364 24.6507 107.513 24.288C107.673 23.9147 107.79 23.6427 107.865 23.472C108.014 23.1307 108.073 22.8853 108.041 22.736C108.009 22.5867 107.95 22.512 107.865 22.512H110.377C110.313 22.512 110.212 22.5867 110.073 22.736C109.945 22.8747 109.796 23.1147 109.625 23.456C109.529 23.6373 109.39 23.9147 109.209 24.288C109.028 24.6613 108.825 25.0827 108.601 25.552C108.377 26.0107 108.158 26.4693 107.945 26.928C107.732 27.3867 107.545 27.808 107.385 28.192C107.225 28.5653 107.118 28.848 107.065 29.04C106.969 29.392 106.932 29.6427 106.953 29.792C106.974 29.9307 107.012 30 107.065 30H104.505C104.58 30 104.628 29.9307 104.649 29.792C104.681 29.6427 104.633 29.392 104.505 29.04C104.473 28.944 104.393 28.7253 104.265 28.384C104.137 28.0427 103.982 27.632 103.801 27.152C103.62 26.6613 103.433 26.1547 103.241 25.632C103.049 25.1093 102.862 24.6133 102.681 24.144H102.633C102.462 24.592 102.276 25.072 102.073 25.584C101.87 26.0853 101.678 26.576 101.497 27.056C101.316 27.5253 101.161 27.9413 101.033 28.304C100.905 28.656 100.825 28.9013 100.793 29.04C100.697 29.392 100.66 29.6427 100.681 29.792C100.702 29.9307 100.74 30 100.793 30H98.2331ZM114.105 30.16C112.942 30.16 112.126 29.952 111.657 29.536C111.187 29.1093 110.953 28.5387 110.953 27.824C110.953 27.3227 111.075 26.896 111.321 26.544C111.577 26.1813 111.955 25.904 112.457 25.712C112.969 25.52 113.614 25.424 114.393 25.424C114.947 25.424 115.427 25.4667 115.833 25.552C116.249 25.6267 116.585 25.7173 116.841 25.824C117.107 25.9307 117.294 26.0213 117.401 26.096C117.401 25.4667 117.321 24.96 117.161 24.576C117.011 24.192 116.766 23.9147 116.425 23.744C116.083 23.5627 115.619 23.472 115.033 23.472C114.403 23.472 113.838 23.5467 113.337 23.696C112.846 23.8347 112.451 23.9893 112.153 24.16C111.854 24.32 111.667 24.4373 111.593 24.512V24.192L111.433 22.992C111.529 22.9493 111.737 22.88 112.057 22.784C112.377 22.6773 112.798 22.5813 113.321 22.496C113.843 22.4 114.457 22.352 115.161 22.352C116.057 22.352 116.787 22.48 117.353 22.736C117.929 22.9813 118.35 23.3653 118.617 23.888C118.894 24.4 119.033 25.0507 119.033 25.84V29.04C119.033 29.3387 119.065 29.5573 119.128 29.696C119.203 29.824 119.278 29.9253 119.352 30H117.401V29.52L117.433 29.216L117.401 29.2C117.23 29.36 117.027 29.4987 116.793 29.616C116.558 29.7333 116.302 29.8347 116.025 29.92C115.747 29.9947 115.443 30.0533 115.113 30.096C114.793 30.1387 114.457 30.16 114.105 30.16ZM114.633 29.024C115.209 29.024 115.705 28.9653 116.121 28.848C116.537 28.7307 116.851 28.576 117.065 28.384C117.289 28.1813 117.401 27.952 117.401 27.696C117.401 27.376 117.187 27.104 116.761 26.88C116.345 26.656 115.694 26.544 114.809 26.544C113.987 26.544 113.406 26.6507 113.065 26.864C112.734 27.0773 112.569 27.3973 112.569 27.824C112.569 28.24 112.729 28.544 113.049 28.736C113.379 28.928 113.907 29.024 114.633 29.024ZM120.8 30C120.875 30 120.944 29.9253 121.008 29.776C121.083 29.6267 121.12 29.3813 121.12 29.04V19.92C121.12 19.5787 121.083 19.3387 121.008 19.2C120.944 19.0507 120.875 18.9707 120.8 18.96C121.269 18.96 121.675 18.928 122.016 18.864C122.368 18.7893 122.613 18.7147 122.752 18.64V29.04C122.752 29.3813 122.784 29.6267 122.848 29.776C122.923 29.9253 122.997 30 123.072 30H120.8ZM124.675 30C124.75 30 124.819 29.9253 124.883 29.776C124.958 29.6267 124.995 29.3813 124.995 29.04V19.92C124.995 19.5787 124.958 19.3387 124.883 19.2C124.819 19.0507 124.75 18.9707 124.675 18.96C125.144 18.96 125.55 18.928 125.891 18.864C126.243 18.7893 126.488 18.7147 126.627 18.64V29.04C126.627 29.3813 126.659 29.6267 126.723 29.776C126.798 29.9253 126.872 30 126.947 30H124.675ZM132.502 30.16C131.659 30.16 130.966 30.064 130.422 29.872C129.878 29.6693 129.451 29.392 129.142 29.04C128.833 28.688 128.614 28.2773 128.486 27.808C128.369 27.3387 128.31 26.8267 128.31 26.272C128.31 25.0667 128.651 24.112 129.334 23.408C130.027 22.704 131.051 22.352 132.406 22.352C133.195 22.352 133.83 22.4587 134.31 22.672C134.801 22.8853 135.169 23.168 135.414 23.52C135.67 23.872 135.841 24.256 135.926 24.672C136.022 25.0773 136.07 25.4773 136.07 25.872V26.624C136.07 26.592 135.921 26.56 135.622 26.528C135.334 26.4853 134.843 26.464 134.15 26.464H129.942C129.942 27.2533 130.177 27.8773 130.646 28.336C131.115 28.7947 131.814 29.024 132.742 29.024C133.542 29.024 134.198 28.928 134.71 28.736C135.233 28.5333 135.579 28.336 135.75 28.144V28.464L135.91 29.52C135.675 29.6587 135.259 29.8027 134.662 29.952C134.075 30.0907 133.355 30.16 132.502 30.16ZM130.582 25.408H134.47C134.47 25.1307 134.411 24.8427 134.294 24.544C134.177 24.2453 133.969 23.9947 133.67 23.792C133.371 23.5787 132.95 23.472 132.406 23.472C131.947 23.472 131.547 23.552 131.206 23.712C130.865 23.8613 130.598 24.0587 130.406 24.304C130.225 24.5493 130.134 24.8107 130.134 25.088C130.134 25.1947 130.166 25.2747 130.23 25.328C130.294 25.3813 130.411 25.408 130.582 25.408ZM140.559 30.16C139.823 30.16 139.29 30.0053 138.959 29.696C138.628 29.376 138.463 28.8587 138.463 28.144V23.632H137.023V22.512C137.514 22.512 137.898 22.4533 138.175 22.336C138.452 22.208 138.65 21.9893 138.767 21.68C138.884 21.3707 138.943 20.9387 138.943 20.384H140.095V22.512H143.151C143.076 22.6187 143.002 22.7787 142.927 22.992C142.863 23.1947 142.831 23.408 142.831 23.632H140.095V27.904C140.095 28.3947 140.186 28.704 140.367 28.832C140.548 28.96 140.778 29.024 141.055 29.024C141.322 29.024 141.567 28.9707 141.791 28.864C142.026 28.7467 142.228 28.608 142.399 28.448C142.58 28.288 142.719 28.1333 142.815 27.984V28.48L142.975 29.392C142.868 29.4987 142.703 29.616 142.479 29.744C142.255 29.8613 141.983 29.9573 141.663 30.032C141.343 30.1173 140.975 30.16 140.559 30.16Z" fill="white"/>
<defs>
<linearGradient id="paint0_linear_2190_88" x1="19.4677" y1="-1.46068e-06" x2="163.145" y2="-8.6855e-06" gradientUnits="userSpaceOnUse">
<stop stop-color="#A02279"/>
<stop stop-color="#A02279"/>
</linearGradient>
</defs>
</svg>
